# xmcd
#
# Track frame offsets: 
#        150
#        14595
#        25284
#        37828
#        58858
#        71196
#        89948
#        104592
#        125288
#        159489
#        178660
#        190703
#        204858
#        218875
#        255768
#
# Disc length: 3459 seconds
#
# Revision: 0
# Processed by: cddbd v1.5.2PL0 Copyright (c) Steve Scherf et al.
# Submitted via: ExactAudioCopyFreeDBPlugin 1.0
#
DISCID=d20d810f
DTITLE=Willie Nelson - Playlist: The Very Best Gospel of
DYEAR=2011
DGENRE=Country
TTITLE0=Family Bible
TTITLE1=In God's Eyes
TTITLE2=Kneel at the Feet of Jesus
TTITLE3=Uncloudy Day
TTITLE4=When the Roll Is Called Up Yonder
TTITLE5=In the Garden
TTITLE6=There Is a Fountain
TTITLE7=Will the Circle Be Unbroken
TTITLE8=Precious Memories
TTITLE9=Where the Soul Never Dies
TTITLE10=Sweet Bye and Bye
TTITLE11=Shall We Gather
TTITLE12=I Saw the Light
TTITLE13=Amazing Grace
TTITLE14=Data
EXTD=
EXTT0=
EXTT1=
EXTT2=
EXTT3=
EXTT4=
EXTT5=
EXTT6=
EXTT7=
EXTT8=
EXTT9=
EXTT10=
EXTT11=
EXTT12=
EXTT13=
EXTT14=
PLAYORDER=
